<?xml version="1.0" standalone="no"?><!DOCTYPE svg PUBLIC "-//W3C//DTD SVG 1.1//EN" "http://www.w3.org/Graphics/SVG/1.1/DTD/svg11.dtd"><svg t="1685525155638" class="icon" viewBox="0 0 1024 1024" version="1.1" xmlns="http://www.w3.org/2000/svg" p-id="27153" xmlns:xlink="http://www.w3.org/1999/xlink" width="200" height="200"><path d="M768 426.688L955.712 896h-91.904l-51.264-128H638.016l-51.136 128H494.976l187.712-469.312H768z m-42.688 123.072l-53.184 132.928h106.304l-53.12-132.928z" fill="#000000" p-id="27154"></path><path d="M341.248 170.688V85.312H255.936v85.376H85.248v298.624h170.688v128h85.312v-128h170.688V170.688H341.248zM170.56 256H256v128H170.56V256z m170.688 0h85.312v128H341.248V256z m-127.936 469.312a85.376 85.376 0 0 0 78.976 85.12l6.4 0.256h128V896h-128A170.688 170.688 0 0 1 128 725.312V640h85.312v85.312z m512-597.312A170.688 170.688 0 0 1 896 298.688V384h-85.312V298.688a85.312 85.312 0 0 0-85.376-85.376h-128V128h128z" fill="#000000" fill-opacity=".4" p-id="27155"></path></svg>
